<?xml version="1.0" encoding="utf-8"?>
<!-- Generator: Adobe Illustrator 24.2.1, SVG Export Plug-In . SVG Version: 6.00 Build 0)  -->
<svg version="1.1" id="Layer_3" xmlns="http://www.w3.org/2000/svg" xmlns:xlink="http://www.w3.org/1999/xlink" x="0px" y="0px"
	 width="136.364px" height="136.364px" viewBox="0 0 136.364 136.364" enable-background="new 0 0 136.364 136.364"
	 xml:space="preserve">
<g>
	<path fill="#FF69B4" d="M70.984,128.346c-0.295,0-0.59-0.001-0.887-0.004c-10.807-0.091-26.425-1.584-39.461-8.18
		c-13.059-6.606-20.635-16.761-22.517-30.183c-1.598-11.389,1.645-20.261,5.078-29.654c0.676-1.85,1.375-3.763,2.027-5.681
		c0.437-1.283,0.947-2.844,1.523-4.604C23.493,29.42,30.81,9.192,39.551,8.055c1.405-0.183,6.436,0.245,13.544,12.894
		c2.679-0.443,8.718-1.322,15.079-1.452c7.577-0.157,13.332,0.725,15.802,1.19c2.384-3.148,9.264-11.544,15.093-11.887
		c5.243-0.289,9.866,8.928,16.06,24.987c0.543,1.41,1.014,2.629,1.393,3.554l1.064,2.587c7.114,17.268,14.472,35.124,9.353,53.797
		C120.9,115.759,100.529,128.346,70.984,128.346z M40.178,12.015c-0.038,0-0.075,0.002-0.11,0.007
		c-6.972,0.907-16.087,28.772-19.519,39.262c-0.582,1.777-1.097,3.354-1.538,4.649c-0.667,1.961-1.374,3.895-2.058,5.766
		c-3.257,8.91-6.333,17.327-4.874,27.727c4.363,31.109,42.05,34.782,58.051,34.917l0,0c0.308,0.003,0.617,0.004,0.921,0.004
		c37.691,0.002,48.775-19.804,52.03-31.676c4.757-17.356-2.02-33.804-9.193-51.217l-1.067-2.593
		c-0.388-0.945-0.868-2.191-1.424-3.633c-1.655-4.292-3.922-10.17-6.379-14.973c-3.82-7.469-5.64-7.464-5.714-7.461
		c-3.672,0.216-9.828,7.027-12.847,11.27c-0.472,0.664-1.304,0.972-2.092,0.787c-0.065-0.016-6.671-1.549-16.109-1.354
		c-8.025,0.165-15.774,1.619-15.852,1.634c-0.854,0.165-1.72-0.249-2.134-1.017C46.804,17.68,42.063,12.015,40.178,12.015z"/>
	<path fill="#FF69B4" d="M47.835,65.042c-0.481,0-0.963-0.172-1.347-0.522L32.722,51.97c-0.816-0.744-0.875-2.009-0.131-2.825
		c0.744-0.816,2.008-0.875,2.826-0.131l13.766,12.55c0.816,0.744,0.875,2.009,0.131,2.825
		C48.919,64.823,48.378,65.042,47.835,65.042z"/>
	<path fill="#FF69B4" d="M33.617,65.167c-0.541,0-1.08-0.218-1.475-0.648c-0.747-0.814-0.692-2.079,0.123-2.826l14.106-12.936
		c0.814-0.746,2.08-0.691,2.826,0.123c0.747,0.814,0.692,2.079-0.123,2.826L34.968,64.641C34.585,64.993,34.1,65.167,33.617,65.167z
		"/>
	<path fill="#FF69B4" d="M104.686,63.204c-0.441,0-0.885-0.145-1.254-0.443L88.93,51.069c-0.86-0.693-0.995-1.953-0.302-2.812
		c0.692-0.86,1.954-0.994,2.812-0.302l14.502,11.692c0.86,0.693,0.995,1.953,0.302,2.812
		C105.849,62.949,105.27,63.204,104.686,63.204z"/>
	<path fill="#FF69B4" d="M90.245,63.897c-0.541,0-1.08-0.218-1.475-0.648c-0.747-0.814-0.692-2.079,0.122-2.826l14.105-12.936
		c0.814-0.747,2.079-0.691,2.825,0.123c0.747,0.814,0.692,2.079-0.122,2.826L91.595,63.371
		C91.212,63.723,90.727,63.897,90.245,63.897z"/>
	<path fill="#FF69B4" d="M72.046,73.907c-0.761,0-1.545-0.015-2.352-0.048c-6.754-0.275-12.027-1.589-12.248-1.645
		c-0.788-0.199-1.377-0.854-1.491-1.659s0.271-1.599,0.972-2.008c0.038-0.022,3.8-2.226,6.416-4.489
		c2.675-2.315,5.125-4.939,5.149-4.965c0.371-0.399,0.89-0.629,1.435-0.637c0.546-0.02,1.069,0.207,1.452,0.594
		c0.029,0.03,2.973,3.004,5.301,5.072c1.833,1.628,6.075,4.073,7.556,4.878c0.726,0.395,1.134,1.194,1.028,2.013
		c-0.105,0.819-0.704,1.489-1.506,1.687C83.538,72.754,78.759,73.907,72.046,73.907z M63.204,69.231
		c1.87,0.274,4.165,0.531,6.654,0.633c2.889,0.118,5.51-0.02,7.622-0.229c-1.28-0.827-2.554-1.721-3.455-2.522
		c-1.387-1.231-2.939-2.728-4.04-3.809c-1.018,1.024-2.471,2.436-4.023,3.779C65.093,67.835,64.13,68.569,63.204,69.231z"/>
</g>
</svg>
