<?xml version="1.0" encoding="utf-8"?>
<!-- Generator: Adobe Illustrator 24.2.1, SVG Export Plug-In . SVG Version: 6.00 Build 0)  -->
<svg version="1.1" id="Layer_4" xmlns="http://www.w3.org/2000/svg" xmlns:xlink="http://www.w3.org/1999/xlink" x="0px" y="0px"
	 width="136.364px" height="136.364px" viewBox="0 0 136.364 136.364" enable-background="new 0 0 136.364 136.364"
	 xml:space="preserve">
<g>
	<path fill="#FF69B4" d="M66.546,124.416c-17.793,0.001-37.344-2.903-50.068-11.624C3.064,103.599,0.651,85.481,6.815,74.326
		c1.908-3.453,3.752-5.685,5.234-7.478c1.161-1.404,2.078-2.513,2.606-3.712c0.812-1.846,1.073-3.35,1.503-5.842
		c0.232-1.345,0.521-3.018,0.969-5.135c0.866-4.099,2.118-7.25,2.828-8.843c-3.699-5.164-12.318-18.092-10.04-23.455
		c0.609-1.434,1.873-2.35,3.559-2.579c21.072-2.859,31.911,1.86,34.931,3.506c3.877-1.146,19.416-5.15,32.548-0.162
		c1.929-1.172,6.768-3.912,12.997-5.992c10.735-3.585,20.451-3.425,28.1,0.466l0,0c1.598,0.813,2.614,2.118,2.938,3.773
		c0.975,4.978-4.552,11.876-10.296,18.514c-0.568,0.657-1.185,1.369-1.611,1.888c0.025,0.037,0.049,0.072,0.073,0.107
		c1.05,1.55,3.004,4.434,4.985,10.583c1.268,3.931,1.664,7.066,1.953,9.355c0.179,1.421,0.383,3.033,0.717,3.393
		c0.175,0.188,0.581,0.551,1.011,0.936c2.934,2.627,9.804,8.778,10.688,17.97c1.254,13.05-8.481,30.822-28.994,38.058
		C96.41,122.182,82.154,124.416,66.546,124.416z M26.014,20.392c-3.519,0-7.509,0.245-12.002,0.855
		c-0.359,0.049-0.394,0.13-0.415,0.179c-1.04,2.448,4.479,12.573,10.285,20.494c0.452,0.616,0.513,1.435,0.159,2.111
		c-0.017,0.033-1.876,3.642-2.999,8.957c-0.432,2.044-0.703,3.609-0.941,4.989c-0.466,2.697-0.774,4.479-1.784,6.773
		c-0.752,1.708-1.879,3.07-3.183,4.649c-1.448,1.751-3.089,3.736-4.817,6.863C3.83,87.998,9.55,103.196,18.74,109.493
		c22.426,15.369,69.246,11.417,83.443,6.411c20.857-7.357,27.227-24.7,26.342-33.903c-0.733-7.637-6.569-12.861-9.374-15.373
		c-0.564-0.506-0.973-0.872-1.272-1.194c-1.211-1.303-1.438-3.111-1.755-5.613c-0.284-2.251-0.639-5.054-1.791-8.629
		c-1.807-5.605-3.553-8.182-4.49-9.567c-0.534-0.788-0.92-1.357-1.053-2.082c-0.22-1.195,0.313-1.811,2.877-4.773
		c3.016-3.485,10.077-11.646,9.396-15.128c-0.062-0.321-0.207-0.661-0.827-0.977l0,0c-16.244-8.265-37.762,5.721-37.977,5.863
		c-0.558,0.367-1.26,0.434-1.876,0.176c-13.582-5.685-31.426,0.096-31.604,0.154c-0.594,0.197-1.246,0.104-1.762-0.25
		C46.946,24.562,40.511,20.392,26.014,20.392z"/>
	<path fill="#FF69B4" d="M46.413,71.123c-0.303,0-0.61-0.068-0.898-0.214L22.526,59.326c-0.986-0.497-1.383-1.7-0.886-2.686
		c0.498-0.986,1.701-1.382,2.686-0.886l22.988,11.583c0.986,0.497,1.383,1.699,0.886,2.687
		C47.849,70.721,47.144,71.123,46.413,71.123z"/>
	<path fill="#FF69B4" d="M24.967,74.567c-0.521,0-1.042-0.202-1.434-0.605c-0.77-0.793-0.752-2.059,0.04-2.829l19.03-18.499
		c0.792-0.771,2.057-0.753,2.828,0.04c0.77,0.792,0.752,2.058-0.04,2.828l-19.03,18.5C25.972,74.378,25.469,74.567,24.967,74.567z"
		/>
	<path fill="#FF69B4" d="M108.679,71.247c-0.497,0-0.995-0.184-1.382-0.555l-18.606-17.79c-0.799-0.764-0.827-2.03-0.063-2.828
		s2.03-0.825,2.827-0.063l18.606,17.79c0.799,0.764,0.827,2.03,0.063,2.828C109.732,71.04,109.206,71.247,108.679,71.247z"/>
	<path fill="#FF69B4" d="M87.163,68.28c-0.726,0-1.426-0.396-1.78-1.086c-0.506-0.982-0.119-2.188,0.863-2.693l23.602-12.138
		c0.983-0.505,2.188-0.118,2.693,0.864c0.506,0.982,0.119,2.188-0.863,2.693L88.076,68.058C87.783,68.209,87.47,68.28,87.163,68.28z
		"/>
	<path fill="#FF69B4" d="M57.903,76.109c0.985-3.842,17.727-3.948,18.03,0.296c0.197,2.759-6.306,6.01-8.374,6.207
		C65.489,82.809,56.983,79.696,57.903,76.109z"/>
	<path fill="#FF69B4" d="M41.424,93.391c-4.568,0-7.237-0.836-7.423-0.896c-1.051-0.34-1.627-1.468-1.287-2.519
		c0.34-1.048,1.462-1.622,2.511-1.289l0,0c0.067,0.021,6.868,2.084,17.558-1.002c9.363-2.7,12.864-7.042,12.898-7.086
		c0.347-0.44,0.868-0.722,1.427-0.764c0.558-0.042,1.115,0.146,1.524,0.53c0.037,0.034,4.656,4.195,15.49,6.834
		c12.382,3.017,21.72,0.138,21.813,0.107c1.053-0.33,2.178,0.25,2.511,1.302c0.334,1.053-0.249,2.177-1.302,2.511
		c-0.423,0.134-10.51,3.246-23.97-0.033c-8.386-2.043-13.399-4.956-15.723-6.586c-1.979,1.81-6.195,4.904-13.56,7.028
		C48.911,92.965,44.684,93.391,41.424,93.391z"/>
	<path fill="#FF69B4" d="M90.566,108.551c-12.394,0-19.25-21.372-19.55-22.328c-0.331-1.054,0.255-2.175,1.309-2.506
		c1.055-0.334,2.176,0.255,2.508,1.308c1.863,5.917,8.56,20.933,17.006,19.41c2.767-0.5,4.694-1.66,5.894-3.547
		c2.457-3.865,0.996-9.513,0.981-9.569c-0.283-1.066,0.349-2.162,1.414-2.448c1.063-0.283,2.16,0.343,2.448,1.407
		c0.081,0.298,1.939,7.367-1.453,12.732c-1.806,2.856-4.69,4.659-8.573,5.36C91.874,108.492,91.212,108.551,90.566,108.551z"/>
	<path fill="#FF69B4" d="M91.522,100.863c-0.929,0-1.761-0.649-1.956-1.595c-0.909-4.388-3.038-7.646-3.06-7.679
		c-0.608-0.92-0.357-2.16,0.562-2.771c0.918-0.608,2.157-0.36,2.769,0.556c0.104,0.157,2.573,3.902,3.646,9.083
		c0.225,1.081-0.471,2.14-1.553,2.363C91.793,100.849,91.656,100.863,91.522,100.863z"/>
	<path fill="#FF69B4" d="M52.148,74.387c-0.664,0-1.312-0.33-1.693-0.932c-0.59-0.935-0.311-2.17,0.623-2.76
		c0.28-0.177,6.966-4.331,16.484-4.331c9.065,0,15.661,3.078,15.938,3.208c0.998,0.474,1.424,1.666,0.951,2.664
		c-0.474,0.999-1.666,1.424-2.664,0.951c-0.058-0.027-6.102-2.823-14.225-2.823c-8.373,0-14.289,3.676-14.348,3.713
		C52.882,74.287,52.513,74.387,52.148,74.387z"/>
</g>
</svg>
